<?xml version="1.0" standalone="no"?>
<!DOCTYPE svg PUBLIC "-//W3C//DTD SVG 20010904//EN"
 "http://www.w3.org/TR/2001/REC-SVG-20010904/DTD/svg10.dtd">
<svg version="1.0" xmlns="http://www.w3.org/2000/svg"
 width="500.000000pt" height="500.000000pt" viewBox="0 0 500.000000 500.000000"
 preserveAspectRatio="xMidYMid meet">

<g transform="translate(0.000000,500.000000) scale(0.100000,-0.100000)"
fill="#000000" stroke="none">
<path d="M65 1888 c-39 -85 -56 -166 -56 -265 0 -126 27 -224 97 -343 55 -94
189 -212 290 -255 106 -46 174 -57 306 -52 l126 5 62 -79 c123 -156 342 -348
530 -466 317 -197 782 -318 1152 -299 438 22 827 155 1152 395 69 51 84 82 62
128 -22 46 -73 55 -124 20 -157 -108 -201 -135 -307 -186 -204 -100 -420 -165
-639 -192 -154 -19 -431 -7 -586 26 -284 59 -528 166 -765 333 -85 61 -385
351 -385 374 0 7 21 26 46 42 67 42 164 142 206 211 52 87 79 182 85 301 6
112 -4 173 -44 282 l-28 72 -89 0 c-84 0 -88 -1 -74 -17 30 -35 70 -126 85
-197 35 -171 -26 -352 -161 -472 -209 -187 -501 -177 -700 23 -95 94 -146 217
-146 348 0 87 19 160 64 248 l34 67 -84 0 -85 0 -24 -52z"/>
<path d="M3727 1868 c-37 -101 -46 -150 -47 -249 0 -176 65 -335 186 -454 133
-131 257 -185 439 -192 128 -6 212 10 311 58 322 153 463 530 319 855 l-24 54
-85 0 -84 0 34 -67 c45 -88 64 -161 64 -248 0 -132 -50 -254 -143 -347 -200
-200 -500 -211 -704 -25 -172 158 -217 393 -115 599 20 40 38 76 40 81 2 4
-34 7 -80 7 l-83 0 -28 -72z"/>
</g>
</svg>
